<svg width="172" height="80" viewBox="0 0 172 80" fill="none" xmlns="http://www.w3.org/2000/svg">
<rect x="93.5" y="1.5" width="77" height="77" rx="6.5" stroke="black" stroke-width="3"/>
<circle cx="110.398" cy="40" r="8" fill="black"/>
<circle cx="153.602" cy="40" r="8" fill="black"/>
<circle cx="132" cy="40" r="8" fill="black"/>
<rect x="1.5" y="78.5" width="77" height="77" rx="6.5" transform="rotate(-90 1.5 78.5)" stroke="black" stroke-width="3"/>
<circle cx="25.6016" cy="20.8" r="8" transform="rotate(-90 25.6016 20.8)" fill="black"/>
<circle cx="52" cy="60" r="8" transform="rotate(-90 52 60)" fill="black"/>
<circle cx="52" cy="20.8" r="8" transform="rotate(-90 52 20.8)" fill="black"/>
<circle cx="25.6016" cy="40.8" r="8" transform="rotate(-90 25.6016 40.8)" fill="black"/>
<circle cx="52" cy="40.8" r="8" transform="rotate(-90 52 40.8)" fill="black"/>
<circle cx="25.6016" cy="60" r="8" transform="rotate(-90 25.6016 60)" fill="black"/>
</svg>
