<svg width="80" height="80" viewBox="0 0 80 80" fill="none" xmlns="http://www.w3.org/2000/svg">
<rect x="1.5" y="1.5" width="77" height="77" rx="6.5" stroke="black" stroke-width="3"/>
<path d="M35.6136 46.2784V45.7955C35.6231 44.1383 35.7699 42.8172 36.054 41.8324C36.3475 40.8475 36.7737 40.0521 37.3324 39.446C37.8911 38.84 38.5634 38.2907 39.3494 37.7983C39.9366 37.4195 40.4621 37.0265 40.9261 36.6193C41.3902 36.2121 41.7595 35.7623 42.0341 35.2699C42.3087 34.768 42.446 34.2093 42.446 33.5938C42.446 32.9403 42.2898 32.3674 41.9773 31.875C41.6648 31.3826 41.2434 31.0038 40.7131 30.7386C40.1922 30.4735 39.6146 30.3409 38.9801 30.3409C38.3646 30.3409 37.7822 30.4782 37.233 30.7528C36.6837 31.018 36.2339 31.4157 35.8835 31.946C35.5331 32.4669 35.3438 33.1155 35.3153 33.892H29.5199C29.5672 31.9981 30.0218 30.4356 30.8835 29.2045C31.7453 27.964 32.8864 27.0407 34.3068 26.4347C35.7273 25.8191 37.2945 25.5114 39.0085 25.5114C40.893 25.5114 42.5597 25.8239 44.0085 26.4489C45.4574 27.0644 46.5938 27.9593 47.4176 29.1335C48.2415 30.3078 48.6534 31.7235 48.6534 33.3807C48.6534 34.4886 48.4688 35.4735 48.0994 36.3352C47.7396 37.1875 47.233 37.9451 46.5795 38.608C45.9261 39.2614 45.1544 39.8532 44.2642 40.3835C43.5161 40.8286 42.9006 41.2926 42.4176 41.7756C41.9441 42.2585 41.589 42.8172 41.3523 43.4517C41.125 44.0862 41.0066 44.8674 40.9972 45.7955V46.2784H35.6136ZM38.4261 55.3693C37.4792 55.3693 36.6695 55.0379 35.9972 54.375C35.3343 53.7027 35.0076 52.8977 35.017 51.9602C35.0076 51.0322 35.3343 50.2367 35.9972 49.5739C36.6695 48.911 37.4792 48.5795 38.4261 48.5795C39.3258 48.5795 40.1165 48.911 40.7983 49.5739C41.4801 50.2367 41.8258 51.0322 41.8352 51.9602C41.8258 52.5852 41.66 53.1581 41.3381 53.679C41.0256 54.1903 40.6136 54.6023 40.1023 54.9148C39.5909 55.2178 39.0322 55.3693 38.4261 55.3693Z" fill="black"/>
</svg>
